<svg version="1.1" id="Layer_1" xmlns="http://www.w3.org/2000/svg" xmlns:xlink="http://www.w3.org/1999/xlink" x="0px" y="0px"
	 width="100%" viewBox="0 0 500 500" enable-background="new 0 0 500 500" xml:space="preserve">
<path fill="#000000" opacity="1.000000" stroke="none" 
	d="
M237.000000,501.000000 
	C158.000015,501.000000 79.500038,501.000000 1.000042,501.000000 
	C1.000028,334.333405 1.000028,167.666779 1.000014,1.000132 
	C167.666565,1.000088 334.333130,1.000088 500.999756,1.000044 
	C500.999847,167.666519 500.999847,334.333038 500.999939,500.999786 
	C413.166656,501.000000 325.333344,501.000000 237.000000,501.000000 
M277.218811,210.346634 
	C252.662262,205.160263 228.295090,205.522278 204.211746,213.000870 
	C193.741882,216.252075 184.100174,221.026627 176.854263,229.576340 
	C174.518982,232.331833 172.480560,234.838348 168.630554,236.026901 
	C163.499207,237.611038 161.198471,243.293167 162.696304,248.142197 
	C164.328857,253.427399 169.360550,256.728973 174.525772,255.904160 
	C179.577042,255.097565 183.688690,250.609497 183.039917,245.283813 
	C182.613022,241.779434 180.502563,238.480148 178.623276,233.782333 
	C181.904510,231.109741 185.923004,227.076004 190.629379,224.147949 
	C203.972824,215.846375 219.027756,213.115494 234.420212,212.024826 
	C253.194183,210.694550 271.656036,212.214218 289.549194,218.581329 
	C290.606567,218.957596 292.098846,218.111816 293.388733,217.834702 
	C292.580872,216.643097 292.016724,214.773529 290.921967,214.379974 
	C286.710724,212.866089 282.329559,211.824814 277.218811,210.346634 
M246.176422,301.389221 
	C224.891525,281.968872 211.423218,258.017303 204.620361,230.126724 
	C204.080856,227.914810 202.276062,226.011505 201.059265,223.964798 
	C200.767426,226.315247 199.790359,228.822845 200.287903,230.992249 
	C206.422714,257.741760 219.352264,280.858734 238.593842,300.334961 
	C247.212906,309.059174 257.132690,315.928192 269.504242,318.617065 
	C271.799438,319.115906 274.078064,320.675171 275.870636,322.292297 
	C279.332062,325.415009 284.374023,326.642242 288.300934,324.766144 
	C292.472595,322.773102 294.943085,317.964417 294.120972,313.112793 
	C293.298279,308.257568 290.208984,305.554382 285.479034,304.693756 
	C280.700317,303.824219 276.343781,306.256927 274.134369,310.919434 
	C273.582733,312.083588 273.106781,313.283569 272.635406,314.375977 
	C263.978577,313.390289 258.003357,310.469330 246.176422,301.389221 
M302.061462,220.679550 
	C303.557495,211.525085 303.451141,202.504028 300.598511,193.533188 
	C299.766754,190.917419 299.651581,187.863220 300.020569,185.119278 
	C300.829956,179.100082 296.934174,173.297958 290.861542,172.241608 
	C285.391144,171.290054 279.601868,176.002747 279.007812,181.890991 
	C278.405426,187.861862 282.725037,192.928162 288.947174,193.288116 
	C290.867218,193.399185 292.821716,192.914062 294.973969,192.678558 
	C295.304596,193.280243 295.796722,193.956451 296.072906,194.711609 
	C299.895416,205.162140 298.939056,215.752197 296.380066,226.190765 
	C289.698364,253.446762 275.690948,276.424316 255.221970,295.572205 
	C254.123703,296.599609 254.106888,298.783020 253.586624,300.428284 
	C255.108566,299.882812 257.007477,299.743439 258.096893,298.732056 
	C280.824921,277.631378 295.779999,252.071823 302.061462,220.679550 
M198.274399,201.864716 
	C198.169266,203.523499 197.813110,205.218842 198.047485,206.828186 
	C198.203064,207.896362 199.203491,208.841492 199.825729,209.841705 
	C200.638367,208.972260 201.892349,208.223877 202.170990,207.207977 
	C202.736710,205.145340 202.726959,202.931061 203.038269,200.791489 
	C205.681732,182.623535 218.996613,175.079437 235.608124,182.936935 
	C241.826950,185.878525 247.221542,190.538147 253.106476,194.231949 
	C254.209229,194.924103 255.855927,194.749619 257.251617,194.975082 
	C256.840698,193.592590 256.872803,191.597580 255.946503,190.927597 
	C250.181244,186.757492 244.597763,182.029419 238.219101,179.070786 
	C218.091629,169.735046 202.614304,178.203323 198.712646,200.044876 
	C198.654266,200.371765 198.558777,200.692062 198.274399,201.864716 
M240.359787,309.142303 
	C238.969055,308.936615 237.482773,308.318634 236.208145,308.613983 
	C233.804810,309.170868 231.556824,310.360931 229.185913,311.100800 
	C213.323090,316.050873 201.361771,308.395203 200.123123,291.832123 
	C199.584274,284.626892 200.822144,277.297272 201.048523,270.017792 
	C201.085831,268.818298 200.065659,267.585907 199.534180,266.368713 
	C198.641510,267.347015 197.210083,268.196747 196.941101,269.323914 
	C194.717178,278.643219 194.177811,288.021515 196.313293,297.479279 
	C199.385345,311.084900 211.307159,318.818878 223.999725,316.919983 
	C229.991943,316.023468 236.534943,315.556061 240.359787,309.142303 
M317.015991,235.572571 
	C325.646332,246.462357 324.711334,256.708618 314.164154,265.728516 
	C312.149902,267.451080 310.021149,269.162872 307.677429,270.351593 
	C302.652740,272.900055 297.400391,274.999329 292.371216,277.539673 
	C291.401947,278.029297 291.026398,279.694275 290.376953,280.817078 
	C291.530182,281.128113 292.871948,281.987549 293.807648,281.665863 
	C303.792633,278.232971 313.365601,274.000946 320.585022,265.879364 
	C325.577271,260.263214 328.345581,253.779449 326.992615,246.165741 
	C325.128235,235.673920 318.017334,229.004593 309.601868,223.479065 
	C308.943054,223.046494 307.582794,223.682281 306.548523,223.821548 
	C306.850098,224.965744 306.788422,226.489258 307.517273,227.187271 
	C310.391785,229.940094 313.514557,232.433670 317.015991,235.572571 
M243.072098,242.689728 
	C241.039886,245.717102 240.327560,249.107162 243.135544,251.680481 
	C244.972488,253.363922 247.908096,254.644531 250.363342,254.664536 
	C253.764389,254.692230 256.425598,252.071075 256.348755,248.619598 
	C256.294006,246.158646 255.142288,243.052368 253.376846,241.448181 
	C250.342514,238.691010 246.661240,239.411804 243.072098,242.689728 
z"/>
<path fill="#4C69F0" opacity="1.000000" stroke="none" 
	d="
M277.615295,210.476959 
	C282.329559,211.824814 286.710724,212.866089 290.921967,214.379974 
	C292.016724,214.773529 292.580872,216.643097 293.388733,217.834702 
	C292.098846,218.111816 290.606567,218.957596 289.549194,218.581329 
	C271.656036,212.214218 253.194183,210.694550 234.420212,212.024826 
	C219.027756,213.115494 203.972824,215.846375 190.629379,224.147949 
	C185.923004,227.076004 181.904510,231.109741 178.623276,233.782333 
	C180.502563,238.480148 182.613022,241.779434 183.039917,245.283813 
	C183.688690,250.609497 179.577042,255.097565 174.525772,255.904160 
	C169.360550,256.728973 164.328857,253.427399 162.696304,248.142197 
	C161.198471,243.293167 163.499207,237.611038 168.630554,236.026901 
	C172.480560,234.838348 174.518982,232.331833 176.854263,229.576340 
	C184.100174,221.026627 193.741882,216.252075 204.211746,213.000870 
	C228.295090,205.522278 252.662262,205.160263 277.615295,210.476959 
M168.412506,241.111160 
	C168.339264,243.831924 167.570999,246.822311 168.478821,249.162521 
	C168.950058,250.377274 172.493973,251.163910 174.457520,250.867996 
	C177.941727,250.342941 179.640442,246.381790 178.371262,243.170944 
	C176.895645,239.437851 173.616394,238.532379 168.412506,241.111160 
z"/>
<path fill="#4D6AF2" opacity="1.000000" stroke="none" 
	d="
M246.452835,301.613800 
	C258.003357,310.469330 263.978577,313.390289 272.635406,314.375977 
	C273.106781,313.283569 273.582733,312.083588 274.134369,310.919434 
	C276.343781,306.256927 280.700317,303.824219 285.479034,304.693756 
	C290.208984,305.554382 293.298279,308.257568 294.120972,313.112793 
	C294.943085,317.964417 292.472595,322.773102 288.300934,324.766144 
	C284.374023,326.642242 279.332062,325.415009 275.870636,322.292297 
	C274.078064,320.675171 271.799438,319.115906 269.504242,318.617065 
	C257.132690,315.928192 247.212906,309.059174 238.593842,300.334961 
	C219.352264,280.858734 206.422714,257.741760 200.287903,230.992249 
	C199.790359,228.822845 200.767426,226.315247 201.059265,223.964798 
	C202.276062,226.011505 204.080856,227.914810 204.620361,230.126724 
	C211.423218,258.017303 224.891525,281.968872 246.452835,301.613800 
M286.526581,320.324554 
	C287.558441,317.971954 289.597260,315.524200 289.386108,313.289032 
	C289.069641,309.939056 285.915405,308.459930 282.622681,309.168060 
	C279.060547,309.934113 277.293701,312.535980 278.043121,316.200958 
	C278.911346,320.446808 281.804169,321.704529 286.526581,320.324554 
z"/>
<path fill="#4C69F0" opacity="1.000000" stroke="none" 
	d="
M302.026611,221.119080 
	C295.779999,252.071823 280.824921,277.631378 258.096893,298.732056 
	C257.007477,299.743439 255.108566,299.882812 253.586639,300.428284 
	C254.106888,298.783020 254.123703,296.599609 255.221970,295.572205 
	C275.690948,276.424316 289.698364,253.446762 296.380066,226.190765 
	C298.939056,215.752197 299.895416,205.162140 296.072906,194.711609 
	C295.796722,193.956451 295.304596,193.280243 294.973969,192.678558 
	C292.821716,192.914062 290.867218,193.399185 288.947174,193.288116 
	C282.725037,192.928162 278.405426,187.861862 279.007812,181.890991 
	C279.601868,176.002747 285.391144,171.290054 290.861542,172.241608 
	C296.934174,173.297958 300.829956,179.100082 300.020569,185.119278 
	C299.651581,187.863220 299.766754,190.917419 300.598511,193.533188 
	C303.451141,202.504028 303.557495,211.525085 302.026611,221.119080 
M294.195892,179.154312 
	C291.064636,176.055298 287.728119,175.711609 284.842773,179.184204 
	C282.477905,182.030411 282.902588,185.417847 285.978790,187.307800 
	C287.681976,188.354187 290.780182,188.532639 292.593658,187.690262 
	C295.865204,186.170578 296.511017,183.064529 294.195892,179.154312 
z"/>
<path fill="#4C69F0" opacity="1.000000" stroke="none" 
	d="
M198.377502,201.440063 
	C198.558777,200.692062 198.654266,200.371765 198.712646,200.044876 
	C202.614304,178.203323 218.091629,169.735046 238.219101,179.070786 
	C244.597763,182.029419 250.181244,186.757492 255.946503,190.927597 
	C256.872803,191.597580 256.840698,193.592590 257.251617,194.975067 
	C255.855927,194.749619 254.209229,194.924103 253.106476,194.231949 
	C247.221542,190.538147 241.826950,185.878525 235.608124,182.936935 
	C218.996613,175.079437 205.681732,182.623535 203.038269,200.791489 
	C202.726959,202.931061 202.736710,205.145340 202.170990,207.207977 
	C201.892349,208.223877 200.638367,208.972260 199.825729,209.841705 
	C199.203491,208.841492 198.203064,207.896362 198.047485,206.828186 
	C197.813110,205.218842 198.169266,203.523499 198.377502,201.440063 
z"/>
<path fill="#4C69F0" opacity="1.000000" stroke="none" 
	d="
M240.473099,309.459991 
	C236.534943,315.556061 229.991943,316.023468 223.999725,316.919983 
	C211.307159,318.818878 199.385345,311.084900 196.313293,297.479279 
	C194.177811,288.021515 194.717178,278.643219 196.941101,269.323914 
	C197.210083,268.196747 198.641510,267.347015 199.534180,266.368713 
	C200.065659,267.585907 201.085831,268.818298 201.048523,270.017792 
	C200.822144,277.297272 199.584274,284.626892 200.123123,291.832123 
	C201.361771,308.395203 213.323090,316.050873 229.185913,311.100800 
	C231.556824,310.360931 233.804810,309.170868 236.208145,308.613983 
	C237.482773,308.318634 238.969055,308.936615 240.473099,309.459991 
z"/>
<path fill="#4D6AF2" opacity="1.000000" stroke="none" 
	d="
M316.780579,235.298004 
	C313.514557,232.433670 310.391785,229.940094 307.517273,227.187271 
	C306.788422,226.489258 306.850098,224.965744 306.548523,223.821533 
	C307.582794,223.682281 308.943054,223.046494 309.601868,223.479065 
	C318.017334,229.004593 325.128235,235.673920 326.992615,246.165741 
	C328.345581,253.779449 325.577271,260.263214 320.585022,265.879364 
	C313.365601,274.000946 303.792633,278.232971 293.807648,281.665863 
	C292.871948,281.987549 291.530182,281.128113 290.376953,280.817078 
	C291.026398,279.694275 291.401947,278.029297 292.371216,277.539673 
	C297.400391,274.999329 302.652740,272.900055 307.677429,270.351593 
	C310.021149,269.162872 312.149902,267.451080 314.164154,265.728516 
	C324.711334,256.708618 325.646332,246.462357 316.780579,235.298004 
z"/>
<path fill="#4E6CF6" opacity="1.000000" stroke="none" 
	d="
M243.308380,242.414474 
	C246.661240,239.411804 250.342514,238.691010 253.376846,241.448181 
	C255.142288,243.052368 256.294006,246.158646 256.348755,248.619598 
	C256.425598,252.071075 253.764389,254.692230 250.363342,254.664536 
	C247.908096,254.644531 244.972488,253.363922 243.135544,251.680481 
	C240.327560,249.107162 241.039886,245.717102 243.308380,242.414474 
z"/>
<path fill="#03040A" opacity="1.000000" stroke="none" 
	d="
M168.698425,240.845093 
	C173.616394,238.532379 176.895645,239.437851 178.371262,243.170944 
	C179.640442,246.381790 177.941727,250.342941 174.457520,250.867996 
	C172.493973,251.163910 168.950058,250.377274 168.478821,249.162521 
	C167.570999,246.822311 168.339264,243.831924 168.698425,240.845093 
z"/>
<path fill="#03040A" opacity="1.000000" stroke="none" 
	d="
M286.188324,320.525024 
	C281.804169,321.704529 278.911346,320.446808 278.043121,316.200958 
	C277.293701,312.535980 279.060547,309.934113 282.622681,309.168060 
	C285.915405,308.459930 289.069641,309.939056 289.386108,313.289032 
	C289.597260,315.524200 287.558441,317.971954 286.188324,320.525024 
z"/>
<path fill="#03040A" opacity="1.000000" stroke="none" 
	d="
M294.437561,179.446808 
	C296.511017,183.064529 295.865204,186.170578 292.593658,187.690262 
	C290.780182,188.532639 287.681976,188.354187 285.978790,187.307800 
	C282.902588,185.417847 282.477905,182.030411 284.842773,179.184204 
	C287.728119,175.711609 291.064636,176.055298 294.437561,179.446808 
z"/>
</svg>