<svg version="1.1" id="Layer_1" xmlns="http://www.w3.org/2000/svg" xmlns:xlink="http://www.w3.org/1999/xlink" x="0px" y="0px"
	 width="100%" viewBox="0 0 500 500" enable-background="new 0 0 500 500" xml:space="preserve">
<path fill="#5372FF" opacity="1.000000" stroke="none" 
	d="
M348.256714,263.327118 
	C359.415161,246.832687 369.451660,230.108948 375.969055,211.600357 
	C380.632477,198.356857 385.761810,185.087982 388.458130,171.392365 
	C391.395477,156.472458 391.628143,141.054016 386.575012,126.181305 
	C377.212921,127.518677 368.362946,128.033905 360.171661,122.111717 
	C348.602600,113.747398 345.115082,94.331535 356.154510,82.015160 
	C370.005890,66.561584 397.606232,73.644196 402.261230,93.748482 
	C403.938721,100.993301 403.646667,108.075371 399.219147,114.395920 
	C396.959167,117.622162 396.678101,120.650215 397.910370,124.447266 
	C401.955505,136.911301 402.495514,149.595581 401.173584,162.718475 
	C397.849426,195.718109 384.758545,224.924026 368.512329,253.220200 
	C357.155853,272.999878 343.714355,291.227234 328.892395,308.394257 
	C313.013763,326.785156 295.940735,344.103058 276.116486,358.367554 
	C264.638489,366.626495 252.802246,374.386810 241.155396,382.412354 
	C237.824493,384.707611 234.673355,384.227295 232.708221,381.029358 
	C230.543762,377.507111 232.160614,374.365204 235.452637,372.197266 
	C243.063644,367.185181 251.008453,362.624878 258.278870,357.163727 
	C268.742737,349.303802 279.064453,341.183319 288.819244,332.471344 
	C297.919525,324.343903 306.847870,315.843964 314.689209,306.529205 
	C326.345703,292.682373 336.978455,277.973724 348.256714,263.327118 
M381.066162,114.922615 
	C382.216309,114.310997 383.376282,113.717102 384.515015,113.084885 
	C392.454193,108.677032 393.908020,97.312218 388.039429,90.411072 
	C380.382751,81.407234 365.859528,83.538597 361.521698,96.101006 
	C359.650238,101.520782 360.839386,107.132759 364.869385,111.093399 
	C368.951202,115.104950 374.127594,117.672035 381.066162,114.922615 
z"/>
<path fill="#5371FF" opacity="1.000000" stroke="none" 
	d="
M223.737579,388.232422 
	C233.797287,396.952454 243.123520,406.081818 253.576797,413.655640 
	C260.263763,418.500580 268.583099,421.119629 276.241821,424.579010 
	C278.416290,425.561188 280.216370,425.296661 281.052094,422.297455 
	C284.887848,408.531250 295.880341,402.775726 310.570526,403.676788 
	C323.307159,404.458008 335.258270,419.754120 334.024414,431.622894 
	C332.953094,441.928345 327.670013,449.290710 318.672882,454.033783 
	C309.013580,459.125977 299.615967,457.647003 291.163971,451.469879 
	C287.800659,449.011810 285.251434,445.152557 283.037109,441.503143 
	C281.354706,438.730408 279.572723,436.817963 276.388611,436.133057 
	C260.009644,432.609924 246.471313,423.778595 233.774002,413.331146 
	C217.879105,400.252716 204.810501,384.633942 193.308411,367.722778 
	C176.606720,343.166840 163.418762,316.746948 154.108093,288.554871 
	C148.530792,271.667206 143.492493,254.547760 139.343781,237.260864 
	C136.540207,225.578888 135.484772,213.450150 134.068497,201.471481 
	C133.026535,192.658691 132.594040,183.769882 132.036346,174.905731 
	C131.803116,171.198380 132.278778,167.829651 137.384048,167.970474 
	C141.743988,168.090729 143.636627,170.278214 144.035477,175.244232 
	C145.271103,190.628738 145.690842,206.167770 148.278931,221.330780 
	C151.130295,238.036270 154.956650,254.751266 160.319992,270.806824 
	C166.802902,290.213989 174.607193,309.274719 183.206436,327.852722 
	C191.522919,345.819885 202.148880,362.606873 215.201035,377.694580 
	C218.079346,381.021790 220.727463,384.548096 223.737579,388.232422 
M311.580170,444.074219 
	C320.915710,441.902405 323.488678,432.975006 321.704285,425.546814 
	C319.769470,417.492523 310.229187,412.843414 302.013306,415.531677 
	C294.056091,418.135345 289.732513,426.403900 292.250854,435.506958 
	C294.020630,441.904297 302.704529,447.669403 311.580170,444.074219 
z"/>
<path fill="#5371FF" opacity="1.000000" stroke="none" 
	d="
M153.609146,139.711517 
	C162.612900,138.995392 171.222916,138.536804 179.825897,137.970932 
	C182.586990,137.789337 185.346954,136.934616 188.077347,137.057327 
	C199.295212,137.561493 210.542267,137.930038 221.702225,139.085693 
	C237.327881,140.703827 253.237839,141.557617 268.387878,145.313217 
	C289.987122,150.667496 311.199341,157.815323 332.199585,165.261139 
	C343.769867,169.363480 354.568451,175.642288 365.715576,180.938553 
	C366.444366,181.284805 367.258850,181.510376 367.896332,181.978745 
	C370.598602,183.964233 373.955627,185.848465 371.959229,190.010071 
	C369.820251,194.468872 366.085297,193.631775 362.698669,191.856827 
	C340.898804,180.431442 318.539429,170.279129 294.677399,164.046585 
	C278.532166,159.829575 262.218384,156.023819 245.774261,153.256836 
	C231.902771,150.922760 217.757812,149.635803 203.692368,149.187302 
	C188.098221,148.690048 172.331009,148.547729 156.866959,150.282074 
	C135.883911,152.635422 115.286209,157.606308 96.633522,168.202728 
	C90.713150,171.566025 85.314682,175.859360 79.742790,179.819138 
	C77.521614,181.397690 77.846123,182.868835 79.518288,185.146393 
	C88.905731,197.932373 88.452133,211.039307 77.171059,222.153137 
	C65.715958,233.438431 45.708019,231.811722 37.119484,218.176010 
	C26.860615,201.888382 31.287355,183.271179 51.117237,176.599182 
	C54.873108,175.335464 59.386700,175.663742 63.440331,176.159592 
	C66.530777,176.537598 68.114174,175.325226 70.061417,173.444275 
	C83.742821,160.228546 100.142166,151.750336 118.413849,147.092728 
	C129.877411,144.170563 141.604065,142.280533 153.609146,139.711517 
M73.998611,201.609009 
	C73.203506,192.727203 66.372986,186.564957 57.804337,186.999115 
	C50.380672,187.375259 42.860458,195.302170 43.001488,202.602524 
	C43.156120,210.607025 50.222942,217.957764 57.805748,218.001572 
	C66.740974,218.053192 73.766716,211.316315 73.998611,201.609009 
z"/>
<path fill="#5372FF" opacity="1.000000" stroke="none" 
	d="
M444.015717,276.948669 
	C443.803711,296.354614 434.687469,310.932343 420.739410,322.541260 
	C399.980988,339.818390 374.964050,346.967865 348.836273,351.007172 
	C346.419983,351.380737 343.999054,351.766937 341.565552,351.975952 
	C338.324677,352.254272 336.032990,351.310730 335.968567,347.442139 
	C335.911407,344.008759 336.161530,341.536804 340.669159,340.894379 
	C360.978485,337.999756 380.717804,333.023956 398.851135,323.006134 
	C412.552063,315.437012 424.616821,305.887909 429.833008,290.572113 
	C435.213989,274.772522 432.217865,259.397797 422.970947,245.819580 
	C416.928040,236.946167 409.268494,229.178391 402.412964,220.849579 
	C401.092438,219.245209 399.485291,217.426666 399.222992,215.538483 
	C398.998230,213.920334 400.221069,210.818710 401.312134,210.565720 
	C403.622009,210.030090 407.082977,210.004333 408.635010,211.384842 
	C417.987854,219.704330 426.624542,228.793686 432.917358,239.725327 
	C439.446198,251.066910 444.370758,263.000244 444.015717,276.948669 
z"/>
<path fill="#5371FF" opacity="1.000000" stroke="none" 
	d="
M104.689461,282.732849 
	C105.929016,280.023041 107.337074,277.715973 107.842216,275.225769 
	C108.869278,270.162689 112.381134,270.332733 115.771423,271.468994 
	C119.393036,272.682770 119.587082,275.801270 118.448929,279.120911 
	C115.668785,287.229828 112.686310,295.282257 110.268188,303.499542 
	C105.926651,318.252899 103.744148,333.417511 105.149490,348.739197 
	C106.369110,362.036255 110.288559,374.486938 120.565392,384.152069 
	C128.473434,391.589478 138.096481,395.190979 148.368164,396.876434 
	C162.799408,399.244415 176.789246,395.730988 190.643921,392.059692 
	C194.886169,390.935577 198.562271,392.295898 199.530045,396.152344 
	C200.528656,400.131622 198.004807,401.934174 194.498688,403.041962 
	C181.937347,407.010712 169.080841,409.444855 155.927658,408.907684 
	C135.190033,408.060730 117.225784,400.899261 104.910614,383.303070 
	C98.204941,373.721893 94.597481,362.752869 94.075188,351.031616 
	C93.688965,342.363800 92.873245,333.482544 94.251335,325.022583 
	C96.379364,311.958710 100.211365,299.171814 103.346832,286.273804 
	C103.613785,285.175690 104.077209,284.125305 104.689461,282.732849 
z"/>
<path fill="#5372FF" opacity="1.000000" stroke="none" 
	d="
M151.710251,113.682236 
	C150.664917,116.986420 149.724030,119.924553 149.063858,122.924469 
	C148.122406,127.202606 145.155075,128.882111 141.416016,127.834412 
	C138.043381,126.889389 136.816238,124.417686 137.748703,120.238678 
	C141.954193,101.391190 149.404343,84.352104 162.918167,70.203239 
	C174.432541,58.147766 188.764786,52.594917 204.997772,53.182243 
	C222.428619,53.812916 238.070526,60.428944 252.216843,70.658150 
	C266.028992,80.645729 277.979462,92.496361 288.440155,105.903801 
	C289.843506,107.702469 291.374298,109.411537 292.661591,111.288643 
	C294.658569,114.200691 294.189575,116.965012 291.284576,118.880852 
	C288.226959,120.897316 285.303192,119.740791 283.093445,117.310318 
	C275.562286,109.027061 268.664185,100.101860 260.606293,92.379822 
	C249.249588,81.496452 236.500000,72.445755 221.185791,67.576988 
	C196.470596,59.719437 175.582626,67.550819 162.101624,90.325974 
	C157.859573,97.492577 155.280334,105.643417 151.710251,113.682236 
z"/>
<path fill="#5271FF" opacity="1.000000" stroke="none" 
	d="
M242.857971,226.606140 
	C254.383026,225.159821 261.032227,228.462585 265.520264,238.107849 
	C268.482635,244.474319 268.061401,251.141739 263.714752,256.675201 
	C258.531158,263.274200 251.615692,266.593201 242.908081,264.433105 
	C234.541077,262.357422 229.762741,256.666687 228.099899,248.597015 
	C226.338501,240.049103 230.594315,233.648926 237.043655,228.624619 
	C238.462509,227.519272 240.680069,227.439133 242.857971,226.606140 
z"/>
</svg>
