<svg xmlns="http://www.w3.org/2000/svg" viewBox="0 0 100 100" fill="none">
  <circle cx="50" cy="50" r="48" fill="url(#sapphire-gradient)"/>
  <path d="M50 20C33.43 20 20 33.43 20 50s13.43 30 30 30 30-13.43 30-30S66.57 20 50 20zm0 48c-9.94 0-18-8.06-18-18s8.06-18 18-18 18 8.06 18 18-8.06 18-18 18z" fill="white"/>
  <circle cx="50" cy="50" r="8" fill="white"/>
  <!-- Sapphire lock/shield accent for confidentiality -->
  <rect x="44" y="26" width="12" height="10" rx="2" fill="white" opacity="0.6"/>
  <path d="M46 26v-3a4 4 0 018 0v3" stroke="white" stroke-width="1.5" fill="none" opacity="0.6"/>
  <defs>
    <linearGradient id="sapphire-gradient" x1="0" y1="0" x2="100" y2="100">
      <stop offset="0%" stop-color="#0092F6"/>
      <stop offset="100%" stop-color="#0500E1"/>
    </linearGradient>
  </defs>
</svg>
