<svg xmlns="http://www.w3.org/2000/svg" viewBox="0 0 100 100" fill="none">
  <circle cx="50" cy="50" r="48" fill="url(#consensus-gradient)"/>
  <path d="M50 20C33.43 20 20 33.43 20 50s13.43 30 30 30 30-13.43 30-30S66.57 20 50 20zm0 48c-9.94 0-18-8.06-18-18s8.06-18 18-18 18 8.06 18 18-8.06 18-18 18z" fill="white"/>
  <circle cx="50" cy="50" r="8" fill="white"/>
  <!-- Consensus nodes accent for staking/governance -->
  <circle cx="38" cy="28" r="3" fill="white" opacity="0.5"/>
  <circle cx="50" cy="24" r="3" fill="white" opacity="0.5"/>
  <circle cx="62" cy="28" r="3" fill="white" opacity="0.5"/>
  <line x1="38" y1="28" x2="50" y2="24" stroke="white" stroke-width="1" opacity="0.4"/>
  <line x1="50" y1="24" x2="62" y2="28" stroke="white" stroke-width="1" opacity="0.4"/>
  <defs>
    <linearGradient id="consensus-gradient" x1="0" y1="0" x2="100" y2="100">
      <stop offset="0%" stop-color="#FF6D00"/>
      <stop offset="100%" stop-color="#E65100"/>
    </linearGradient>
  </defs>
</svg>
